HIERARCHY
ROOT Hips
{
    OFFSET 0.000000 0.000000 0.000000
    CHANNELS 6 Xposition Yposition Zposition Zrotation Xrotation Yrotation
    JOINT Spine
    {
        OFFSET -0.000000 8.172037 0.000000
        CHANNELS 3 Zrotation Xrotation Yrotation
        JOINT Spine1
        {
            OFFSET -0.000000 18.392342 0.000000
            CHANNELS 3 Zrotation Xrotation Yrotation
            JOINT Neck
            {
                OFFSET -0.000000 18.316809 1.665164
                CHANNELS 3 Zrotation Xrotation Yrotation
                JOINT Head
                {
                    OFFSET -0.000000 13.952258 -1.993180
                    CHANNELS 3 Zrotation Xrotation Yrotation
                    End Site
                    {
                        OFFSET -0.000000 24.914745 0.000000
                    }
                }
            }
            JOINT LeftShoulder
            {
                OFFSET 4.035833 16.062790 -0.310290
                CHANNELS 3 Zrotation Xrotation Yrotation
                JOINT LeftArm
                {
                    OFFSET 12.395579 0.000000 0.000000
                    CHANNELS 3 Zrotation Xrotation Yrotation
                    JOINT LeftForeArm
                    {
                        OFFSET 26.414022 0.000000 0.000000
                        CHANNELS 3 Zrotation Xrotation Yrotation
                        JOINT LeftHand
                        {
                            OFFSET 28.641636 0.000000 0.000000
                            CHANNELS 3 Zrotation Xrotation Yrotation
                            End Site
                            {
                                OFFSET 14.948848 0.000000 0.000000
                            }
                        }
                    }
                }
            }
            JOINT RightShoulder
            {
                OFFSET -3.919767 16.062790 -0.310290
                CHANNELS 3 Zrotation Xrotation Yrotation
                JOINT RightArm
                {
                    OFFSET -12.395579 0.000000 0.000000
                    CHANNELS 3 Zrotation Xrotation Yrotation
                    JOINT RightForeArm
                    {
                        OFFSET -26.414022 0.000000 0.000000
                        CHANNELS 3 Zrotation Xrotation Yrotation
                        JOINT RightHand
                        {
                            OFFSET -28.641636 0.000000 0.000000
                            CHANNELS 3 Zrotation Xrotation Yrotation
                            End Site
                            {
                                OFFSET -14.948848 0.000000 0.000000
                            }
                        }
                    }
                }
            }
        }
    }
    JOINT LeftUpLeg
    {
        OFFSET 9.965899 0.000000 0.000000
        CHANNELS 3 Zrotation Xrotation Yrotation
        JOINT LeftLeg
        {
            OFFSET -0.000000 -49.671295 0.000000
            CHANNELS 3 Zrotation Xrotation Yrotation
            JOINT LeftFoot
            {
                OFFSET -0.000000 -36.155865 0.000000
                CHANNELS 3 Zrotation Xrotation Yrotation
                JOINT LeftToeBase
                {
                    OFFSET -0.000000 -6.477834 14.948848
                    CHANNELS 3 Zrotation Xrotation Yrotation
                    End Site
                    {
                        OFFSET -0.000000 0.000000 3.986359
                    }
                }
            }
        }
    }
    JOINT RightUpLeg
    {
        OFFSET -9.965899 0.000000 0.000000
        CHANNELS 3 Zrotation Xrotation Yrotation
        JOINT RightLeg
        {
            OFFSET -0.000000 -49.671295 0.000000
            CHANNELS 3 Zrotation Xrotation Yrotation
            JOINT RightFoot
            {
                OFFSET -0.000000 -36.155865 0.000000
                CHANNELS 3 Zrotation Xrotation Yrotation
                JOINT RightToeBase
                {
                    OFFSET -0.000000 -6.477834 14.948848
                    CHANNELS 3 Zrotation Xrotation Yrotation
                    End Site
                    {
                        OFFSET -0.000000 0.000000 3.986359
                    }
                }
            }
        }
    }
}
MOTION
Frames:    7
Frame Time:    0.010000
-4.209191    97.525131    127.053848    -1.191856    4.983564    179.094299    -5.416146    -2.833183    -0.006983    2.354344    -9.786304    0.329174    6.439487    18.503368    -0.861839    -1.460688    25.889816    -0.629062    11.635136    0.472816    -11.308536    -44.514694    24.885897    -78.149879    0.397855    -23.664036    -20.445049    24.653221    -21.370344    10.999866    -1.555845    -4.095007    16.971964    48.243965    8.158782    63.753151    -1.531206    -21.234880    21.078672    -6.404324    -20.211163    -14.395322    3.184783    6.883533    2.341575    -4.941336    7.755021    1.630032    3.422201    -6.768703    -1.429050    0.000000    0.000000    0.000000    -7.935988    7.828571    4.080685    8.252550    5.574287    1.249423    -12.242008    -6.597187    -4.325768    0.000000    0.000000    0.000000    
-4.224622    97.525932    127.040993    -1.198462    4.979824    179.109879    -5.417098    -2.814743    -0.014907    2.358539    -9.805469    0.320864    6.485012    18.518549    -0.864824    -1.563204    25.889168    -0.620926    11.624430    0.477068    -11.315805    -44.522324    24.887974    -78.137321    0.405135    -23.628153    -20.451960    24.708244    -21.322784    11.022510    -1.549258    -4.086308    16.972647    48.186367    8.202057    63.752792    -1.554849    -21.280989    21.112038    -6.443673    -20.245646    -14.445134    3.168998    6.894365    2.346147    -4.939819    7.737773    1.635470    3.459054    -6.774012    -1.439178    0.000000    0.000000    0.000000    -7.950139    7.829897    4.077647    8.258558    5.582725    1.237166    -12.241454    -6.596039    -4.329066    0.000000    0.000000    0.000000    
-4.233939    97.527679    127.027702    -1.194581    4.973100    179.119598    -5.420263    -2.793961    -0.015666    2.362324    -9.824721    0.319929    6.452905    18.492722    -0.858586    -1.513127    25.932718    -0.620696    11.623396    0.469766    -11.329921    -44.569187    24.866671    -78.101936    0.353995    -23.606344    -20.487011    24.721666    -21.303101    11.045564    -1.546383    -4.092370    16.969730    48.182102    8.190210    63.730095    -1.526203    -21.287008    21.135403    -6.460215    -20.254644    -14.441504    3.174214    6.894774    2.353753    -4.948721    7.743643    1.612897    3.451481    -6.773917    -1.429517    0.000000    0.000000    0.000000    -7.943525    7.831600    4.083649    8.242813    5.592204    1.243533    -12.233287    -6.604455    -4.339806    0.000000    0.000000    0.000000    
-4.271675    97.531494    127.010010    -1.206197    4.980308    179.101379    -5.346336    -2.787548    0.002901    2.283798    -9.812929    0.329458    6.475424    18.487326    -0.853387    -1.572023    25.941652    -0.609628    11.602445    0.468417    -11.334716    -44.573479    24.830853    -78.096397    0.264601    -23.615368    -20.518099    24.827074    -21.307741    11.091774    -1.555402    -4.096080    16.963629    48.172089    8.208234    63.719688    -1.547440    -21.312891    21.163538    -6.447426    -20.277349    -14.456318    3.125539    6.922186    2.325041    -4.928645    7.719404    1.681799    3.436968    -6.764427    -1.466292    0.000000    0.000000    0.000000    -7.998283    7.831189    4.074608    8.282571    5.633800    1.306569    -12.238760    -6.622952    -4.385172    0.000000    0.000000    0.000000    
-4.284328    97.534981    126.999138    -1.199717    4.968905    179.099716    -5.325957    -2.792612    0.003896    2.276775    -9.796761    0.329013    6.422219    18.475309    -0.837071    -1.507652    25.936171    -0.600371    11.601778    0.464524    -11.341226    -44.552574    24.836735    -78.103279    0.293058    -23.637375    -20.530821    24.807262    -21.325089    11.101765    -1.562377    -4.137671    16.987150    48.216099    8.161088    63.664078    -1.432718    -21.339039    21.226444    -6.588342    -20.304331    -14.490851    3.128739    6.904234    2.288746    -4.942981    7.743772    1.642301    3.473727    -6.757734    -1.390368    0.000000    0.000000    0.000000    -7.987973    7.819507    4.150955    8.256594    5.629055    1.232390    -12.188261    -6.590513    -4.387757    0.000000    0.000000    0.000000    
-4.297270    97.537148    126.989365    -1.204804    4.956383    179.099655    -5.326741    -2.786548    0.002688    2.277674    -9.797008    0.327987    6.472979    18.448545    -0.823089    -1.598396    25.945576    -0.578143    11.580207    0.439797    -11.362807    -44.594097    24.816139    -78.054924    0.263512    -23.611523    -20.546171    24.824224    -21.303083    11.097218    -1.557098    -4.111938    16.983917    48.178455    8.145885    63.689926    -1.441742    -21.352011    21.221107    -6.620165    -20.313118    -14.471862    3.104998    6.886407    2.316140    -4.913487    7.771889    1.610569    3.468241    -6.766627    -1.388784    0.000000    0.000000    0.000000    -8.002130    7.803783    4.175621    8.267389    5.634880    1.205011    -12.208759    -6.590020    -4.372231    0.000000    0.000000    0.000000    
-4.311437    97.538757    126.978806    -1.205055    4.955571    179.094299    -5.309179    -2.762854    0.003849    2.251952    -9.808290    0.325525    6.464250    18.440531    -0.818342    -1.579160    25.947983    -0.575525    11.590025    0.453897    -11.372425    -44.525578    24.834034    -78.096268    0.254975    -23.756350    -20.588264    25.050100    -21.396961    11.256778    -1.528713    -4.105536    16.994377    48.131527    8.160292    63.685337    -1.456299    -21.371805    21.256035    -6.683953    -20.318399    -14.544603    3.089976    6.878353    2.338886    -4.903586    7.809442    1.642889    3.458980    -6.789741    -1.410693    0.000000    0.000000    0.000000    -8.012454    7.797201    4.204060    8.275654    5.650001    1.241031    -12.242538    -6.561796    -4.444219    0.000000    0.000000    0.000000    
